<?xml version="1.0" encoding="utf-8"?>
<!-- Generator: Adobe Illustrator 19.1.0, SVG Export Plug-In . SVG Version: 6.00 Build 0)  -->
<svg version="1.1" id="Layer_1" xmlns="http://www.w3.org/2000/svg" xmlns:xlink="http://www.w3.org/1999/xlink" x="0px" y="0px"
	 viewBox="0 0 500 500" style="enable-background:new 0 0 500 500;" xml:space="preserve">
<style type="text/css">
	.st0{fill:#B1E3F3;}
	.st1{fill:#FFFFFF;}
	.st2{fill:#F37920;}
	.st3{fill:none;stroke:#C1B49A;stroke-width:18.1281;stroke-miterlimit:10;}
	.st4{fill:#E6E7E8;}
	.st5{fill:#6EC4E9;}
	.st6{fill:#FFDA00;}
	.st7{fill:#EC297B;}
	.st8{fill:#F05A22;}
	.st9{fill:#005CB9;}
	.st10{fill:#9E1F63;}
	.st11{fill:#E7F5FA;}
	.st12{fill:#CCECF7;}
	.st13{fill:#3CD52E;}
	.st14{fill:none;stroke:#9A8479;stroke-width:8.0451;stroke-miterlimit:10;}
</style>
<path class="st0" d="M247.9,157c0-58.3-47.2-105.5-105.5-105.5S36.9,98.7,36.9,157c0,27.3,10.3,52.1,27.3,70.8
	c-6.6,12.2-10.3,26.2-10.3,41c0,48,38.9,86.9,86.9,86.9c48,0,86.9-38.9,86.9-86.9c0-14-3.3-27.2-9.2-38.9
	C236.7,211,247.9,185.3,247.9,157z"/>
<path class="st0" d="M383.7,154.6C366.8,75.5,289,25,209.8,41.9c-52.6,11.2-92.5,49.3-108.4,96.8c-26.8,34.8-38.8,80.7-28.9,127
	C90.4,349.4,172.7,402.8,256.4,385c73.2-15.6,123.2-80.6,122.7-152.6C387.4,208.1,389.4,181.5,383.7,154.6z"/>
<path class="st0" d="M449.7,295.1c11.9-48.4-17.6-97.2-66-109.2c-48.4-11.9-97.2,17.6-109.2,66c-2.4,9.9-3.1,19.8-2.3,29.4
	c-17.4,6.2-31.4,20.7-36.2,39.9c-7.5,30.4,11.1,61.2,41.5,68.7c25.9,6.4,51.9-6.1,63.8-28.6C389.4,372.6,437.8,343.1,449.7,295.1z"
	/>
<path class="st0" d="M416.3,122.4c0.1-1.6,0.1-3.1,0.1-4.7c0-62-50.2-112.2-112.2-112.2S192,55.7,192,117.7s50.2,112.2,112.2,112.2
	c8.3,0,16.4-0.9,24.2-2.6c12.7,21.1,35.8,35.3,62.2,35.3c40,0,72.4-32.4,72.4-72.4C463.1,159.1,443.7,132.7,416.3,122.4z"/>
<g>
	<path class="st1" d="M240.7,77.2c37.7,0,73.2,14.7,99.9,41.4c26.6,26.6,41.3,62.1,41.3,99.9c0,37.8-14.7,73.3-41.3,99.9
		c-26.7,26.7-62.2,41.4-99.9,41.4c-37.7,0-73.2-14.7-99.9-41.4c-55.1-55.1-55.1-144.7,0-199.8C167.4,91.9,202.9,77.2,240.7,77.2
		 M240.7,64.2c-41.2,0-79.9,16-109,45.2c-60.1,60.1-60.1,158,0,218.1c29.1,29.1,67.8,45.2,109,45.2c41.2,0,79.9-16,109-45.2
		c29.1-29.1,45.1-67.8,45.1-109c0-41.2-16-80-45.1-109C320.6,80.3,281.8,64.2,240.7,64.2L240.7,64.2z"/>
</g>
<g>
	<path class="st2" d="M220.1,269.2c7.4-2.9,14.2-7.3,20-13.2c11.1-11.1,17.2-25.8,17.2-41.6c0-7.5-1.4-14.8-4.1-21.6
		c-5.9,3.1-11.4,7.1-16.2,11.9C219.6,222.1,213.9,247,220.1,269.2z"/>
</g>
<path class="st3" d="M240.6,354.8c-36.4,0-70.6-14.2-96.4-39.9c-53.1-53.1-53.1-139.6,0-192.8c25.7-25.7,60-39.9,96.4-39.9
	c36.4,0,70.6,14.2,96.4,39.9c25.7,25.7,39.9,59.9,39.9,96.4s-14.2,70.7-39.9,96.4C311.3,340.6,277.1,354.8,240.6,354.8z"/>
<g>
	<path class="st4" d="M240.6,337.3c-31.7,0-61.6-12.4-84-34.8c-46.3-46.3-46.3-121.7,0-168c22.4-22.4,52.3-34.8,84-34.8
		c31.7,0,61.6,12.4,84,34.8c22.4,22.4,34.7,52.2,34.7,84c0,31.8-12.3,61.6-34.7,84C302.2,324.9,272.4,337.3,240.6,337.3z"/>
	<path class="st1" d="M240.6,108.3c29.4,0,57.1,11.5,77.9,32.3c20.8,20.8,32.2,48.4,32.2,77.9c0,29.5-11.4,57.1-32.2,77.9
		c-20.8,20.8-48.5,32.3-77.9,32.3c-29.4,0-57.1-11.5-77.9-32.3c-43-43-43-112.9,0-155.8C183.5,119.7,211.2,108.3,240.6,108.3
		 M240.6,91c-34,0-66,13.3-90.1,37.3c-49.7,49.7-49.7,130.5,0,180.2c24.1,24.1,56.1,37.3,90.1,37.3c34,0,66-13.3,90.1-37.3
		c24-24,37.3-56,37.3-90.1s-13.2-66.1-37.3-90.1C306.7,104.3,274.7,91,240.6,91L240.6,91z"/>
</g>
<g>
	<path class="st5" d="M240.1,172.9c5.8,5.8,10.2,12.6,13.1,19.9c9.3-4.9,19.8-7.5,30.6-7.5c17.2,0,33.4,6.5,45.7,18.4
		c-2.5-15.5-9-29.9-18.9-42.1c-10.3,5.9-22,9-34.1,9c-18.4,0-35.6-7.2-48.6-20.1c-5.5-5.5-9.9-11.7-13.1-18.4
		c-14.1,4.2-27,11.9-37.8,22.6c-2.8,2.8-5.3,5.7-7.6,8.7c8.8-5.1,18.8-7.8,29.3-7.8C214.2,155.6,229,161.8,240.1,172.9z"/>
</g>
<g>
	<path class="st6" d="M220.1,269.2c-6.8,2.7-14,4.1-21.5,4.1c-14.2,0-27.7-5-38.4-14.3c4.2,8.4,9.8,16.2,16.8,23.2
		c17,17,39.6,26.4,63.7,26.4c3,0,6-0.1,8.9-0.4c-4.5-2.7-8.7-6-12.5-9.9C228.6,289.9,223,279.8,220.1,269.2z"/>
</g>
<g>
	<path class="st7" d="M330.7,218.4c0-5-0.4-9.9-1.2-14.7c-12.4-11.8-28.5-18.4-45.7-18.4c-10.8,0-21.3,2.6-30.6,7.5
		c2.7,6.8,4.1,14.1,4.1,21.6c0,15.7-6.1,30.5-17.2,41.6c-5.8,5.8-12.6,10.2-20,13.2c2.9,10.7,8.6,20.7,16.9,29.1
		c3.8,3.8,8,7.1,12.5,9.9c20.7-2,39.9-11.1,54.8-26C321.3,265.2,330.7,242.5,330.7,218.4z"/>
</g>
<g>
	<path class="st8" d="M220.1,269.2c-6.1-22.2-0.5-47,16.9-64.5c4.8-4.8,10.3-8.8,16.2-11.9c-2.9-7.4-7.3-14.2-13.1-19.9
		c-11.1-11.1-25.9-17.2-41.6-17.2c-10.4,0-20.4,2.7-29.3,7.8c-21.4,27.7-24.4,65.1-9.1,95.6c10.7,9.2,24.1,14.3,38.4,14.3
		C206,273.2,213.3,271.8,220.1,269.2z"/>
</g>
<g>
	<path class="st9" d="M276.4,170.6c12.2,0,23.9-3.1,34.1-9c-1.9-2.4-4-4.7-6.2-6.9c-17-17-39.6-26.4-63.7-26.4
		c-8.9,0-17.6,1.3-26,3.8c3.2,6.6,7.6,12.9,13.1,18.4C240.8,163.5,258.1,170.6,276.4,170.6z"/>
</g>
<g>
	<path class="st10" d="M220.1,269.2c7.4-2.9,14.2-7.3,20-13.2c11.1-11.1,17.2-25.8,17.2-41.6c0-7.5-1.4-14.8-4.1-21.6
		c-5.9,3.1-11.4,7.1-16.2,11.9C219.6,222.1,213.9,247,220.1,269.2z"/>
</g>
<path class="st11" d="M74.7,495c-7.1,0-13.7-2.8-18.7-7.8c-5-5-7.7-11.6-7.7-18.7c0-7.1,2.8-13.7,7.7-18.7c5-5,11.7-7.8,18.7-7.8
	c7.1,0,13.7,2.8,18.7,7.8c5,5,7.7,11.6,7.7,18.7c0,7.1-2.8,13.7-7.7,18.7C88.5,492.2,81.8,495,74.7,495z"/>
<g>
	<path class="st12" d="M138.6,457.5c-10.6,0-20.6-4.1-28.1-11.6c-7.5-7.5-11.6-17.5-11.6-28.1c0-10.6,4.1-20.6,11.6-28.1
		c7.5-7.5,17.5-11.6,28.1-11.6c10.6,0,20.6,4.1,28.1,11.6c7.5,7.5,11.6,17.5,11.6,28.1c0,10.6-4.1,20.6-11.6,28.1
		C159.2,453.4,149.2,457.5,138.6,457.5z"/>
</g>
<g>
	<path class="st13" d="M331.2,208.4c-0.1,0-0.1-0.1-0.2-0.1c-7.8-4.8-17.1-6.2-26-4c-8.9,2.2-16.4,7.7-21.2,15.5
		c-9.8,16.2-4.7,37.4,11.5,47.2c7.7,4.7,16.8,6.1,25.7,4.1C329.6,251.3,333,229.9,331.2,208.4z"/>
</g>
<path class="st14" d="M240.6,312.1c-25,0-48.6-9.7-66.3-27.4c-36.5-36.5-36.5-96,0-132.5c17.7-17.7,41.2-27.4,66.3-27.4
	c25,0,48.6,9.7,66.3,27.4c17.7,17.7,27.4,41.2,27.4,66.3s-9.7,48.6-27.4,66.3C289.2,302.4,265.7,312.1,240.6,312.1z"/>
<g>
	<path class="st1" d="M239.6,245.5c-8.7,0-16.9-3.4-23.1-9.5c-12.7-12.7-12.7-33.4,0-46.1c6.2-6.2,14.3-9.5,23.1-9.5
		c8.7,0,16.9,3.4,23.1,9.5c6.1,6.1,9.5,14.3,9.5,23.1s-3.4,16.9-9.5,23.1C256.5,242.2,248.3,245.5,239.6,245.5z"/>
</g>
<g>
	<path class="st1" d="M257.3,214c-6.2,0-11.9-2.4-16.3-6.8c-9-9-9-23.6,0-32.6c4.4-4.4,10.1-6.8,16.3-6.8c6.2,0,11.9,2.4,16.3,6.8
		c4.3,4.3,6.7,10.1,6.7,16.3c0,6.2-2.4,12-6.7,16.3C269.2,211.6,263.5,214,257.3,214z"/>
</g>
</svg>
