<?xml version="1.0" encoding="utf-8"?>
<!-- Generator: Adobe Illustrator 19.1.0, SVG Export Plug-In . SVG Version: 6.00 Build 0)  -->
<svg version="1.1" id="Layer_1" xmlns="http://www.w3.org/2000/svg" xmlns:xlink="http://www.w3.org/1999/xlink" x="0px" y="0px"
	 viewBox="0 101 800 300" style="enable-background:new 0 101 800 300;" xml:space="preserve">
<style type="text/css">
	.st0{fill:none;stroke:#6EC4E9;stroke-width:13.6598;stroke-miterlimit:10;}
</style>
<g>
	<path class="st0" d="M168.5,373.9c-6.5,0-13-2.5-17.9-7.4l-69-69c-7.2-7.3-9.4-18.2-5.5-27.6c3.9-9.5,13.2-15.6,23.4-15.6
		c18.1,0,32.8-14.7,32.8-32.8s-14.7-32.8-32.8-32.8s-32.8,14.7-32.8,32.8v86.4c0,14-11.3,25.4-25.4,25.4S16,321.9,16,307.9v-86.4
		c0-46,37.5-83.5,83.5-83.5s83.5,37.4,83.5,83.4c0,28.7-14.6,54.1-36.7,69.1l40.1,40.1c9.9,9.9,9.9,26,0,35.9
		C181.5,371.4,175,373.9,168.5,373.9z"/>
	<path class="st0" d="M349.8,137.9c-16.5,0-31.7,5.8-43.6,15.6c-11.9-9.7-27.1-15.6-43.6-15.6c-38,0-69,30.9-69,69v65.8
		c0,14,11.3,25.4,25.4,25.4s25.4-11.3,25.4-25.4v-65.8c0-10.1,8.2-18.3,18.3-18.3c10.1,0,18.3,8.2,18.3,18.3v105.3
		c0,14,11.3,25.4,25.4,25.4s25.4-11.3,25.4-25.4V206.9c0-10.1,8.2-18.3,18.3-18.3c10.1,0,18.3,8.2,18.3,18.3v141.7
		c0,14,11.3,25.4,25.4,25.4s25.4-11.3,25.4-25.4V206.9C418.8,168.8,387.8,137.9,349.8,137.9z"/>
	<path class="st0" d="M527.4,373.9c-14,0-25.4-11.3-25.4-25.4c0-14,11.3-25.4,25.4-25.4c10.1,0,18.3-9.4,18.3-21s-8.2-21-18.3-21
		c-14,0-25.4-11.3-25.4-25.4c0-14.1,11.3-25.4,25.4-25.4c10.1,0,18.3-9.4,18.3-21s-8.2-21-18.3-21h-45.5v122.9
		c0,14-11.3,25.4-25.4,25.4s-25.4-11.3-25.4-25.4v-148c0-14,11.3-25.4,25.4-25.4h70.9c38,0,69,32.2,69,71.7
		c0,17.6-6.2,33.8-16.4,46.3c10.2,12.5,16.4,28.7,16.4,46.3C596.4,341.7,565.5,373.9,527.4,373.9z"/>
	<path class="st0" d="M758.7,373.9c-6.5,0-13-2.5-17.9-7.4l-69-69c-7.2-7.3-9.4-18.2-5.5-27.6c3.9-9.5,13.2-15.6,23.4-15.6
		c18.1,0,32.8-14.7,32.8-32.8s-14.7-32.8-32.8-32.8s-32.8,14.7-32.8,32.8v86.4c0,14-11.3,25.4-25.4,25.4s-25.4-11.3-25.4-25.4v-86.4
		c0-46,37.5-83.5,83.5-83.5c46.1,0,83.5,37.5,83.5,83.5c0,28.7-14.6,54.1-36.7,69.1l40.1,40.1c9.9,9.9,9.9,26,0,35.9
		C771.7,371.4,765.2,373.9,758.7,373.9z"/>
</g>
</svg>
